<?xml version="1.0" encoding="utf-8"?>
<!-- Generator: Adobe Illustrator 19.0.0, SVG Export Plug-In . SVG Version: 6.00 Build 0)  -->
<svg version="1.1" id="Layer_1" xmlns="http://www.w3.org/2000/svg" xmlns:xlink="http://www.w3.org/1999/xlink" x="0px" y="0px"
	 viewBox="0 0 500 156" style="enable-background:new 0 0 500 156;" xml:space="preserve">
<style type="text/css">
	.st0{clip-path:url(#SVGID_2_);fill:none;stroke:#241F21;stroke-width:2;stroke-miterlimit:10;}
	.st1{clip-path:url(#SVGID_2_);}
	.st2{clip-path:url(#SVGID_4_);}
</style>
<g>
	<g>
		<defs>
			<rect id="SVGID_1_" x="10" y="8.6" width="480" height="139.2"/>
		</defs>
		<clipPath id="SVGID_2_">
			<use xlink:href="#SVGID_1_"  style="overflow:visible;"/>
		</clipPath>
		<path class="st0" d="M489,133c0,7.6-6.2,13.8-13.8,13.8H24.8c-7.6,0-13.8-6.2-13.8-13.8V23.3c0-7.6,6.2-13.8,13.8-13.8h450.4
			c7.6,0,13.8,6.2,13.8,13.8L489,133L489,133z"/>
		<path class="st1" d="M116,77.4c-0.1-11.6,9.5-17.2,9.9-17.5c-5.4-7.9-13.8-9-16.8-9.1c-7.1-0.7-13.9,4.2-17.5,4.2
			c-3.7,0-9.2-4.2-15.2-4c-7.7,0.1-14.9,4.6-18.8,11.5c-8.1,14.1-2.1,34.8,5.7,46.2c3.9,5.6,8.5,11.8,14.4,11.6
			c5.8-0.2,8-3.7,15.1-3.7c7,0,9,3.7,15.1,3.6c6.3-0.1,10.2-5.6,14-11.2c4.5-6.4,6.3-12.7,6.4-13C128.1,95.9,116.1,91.3,116,77.4"/>
		<path class="st1" d="M104.5,43.4c3.1-3.9,5.3-9.3,4.7-14.7c-4.5,0.2-10.2,3.1-13.5,7c-2.9,3.4-5.5,8.9-4.8,14.1
			C96,50.2,101.2,47.2,104.5,43.4"/>
		<path class="st1" d="M186.4,99.6l-4-12.5c-0.4-1.3-1.2-4.3-2.4-9h-0.1c-0.5,2-1.2,5-2.3,9l-4,12.5H186.4z M200.4,119.5h-8.2
			l-4.5-14h-15.5l-4.3,14h-7.9l15.4-47.8h9.5L200.4,119.5z"/>
		<path class="st1" d="M232.1,102.1c0-3.4-0.8-6.1-2.3-8.3c-1.7-2.3-3.9-3.4-6.7-3.4c-1.9,0-3.6,0.6-5.1,1.9c-1.5,1.3-2.5,2.9-3,4.9
			c-0.2,0.9-0.4,1.7-0.4,2.3v5.7c0,2.5,0.8,4.6,2.3,6.3c1.5,1.7,3.5,2.6,6,2.6c2.9,0,5.1-1.1,6.7-3.3
			C231.3,108.7,232.1,105.8,232.1,102.1 M239.9,101.8c0,5.9-1.6,10.5-4.7,13.9c-2.8,3-6.4,4.5-10.6,4.5c-4.5,0-7.8-1.6-9.8-4.9h-0.1
			v18.1h-7.7V96.4c0-3.7-0.1-7.5-0.3-11.3h6.7l0.4,5.5h0.1c2.6-4.1,6.4-6.2,11.6-6.2c4.1,0,7.5,1.6,10.2,4.8
			C238.6,92.4,239.9,96.6,239.9,101.8"/>
		<path class="st1" d="M271.8,102.1c0-3.4-0.8-6.1-2.3-8.3c-1.7-2.3-3.9-3.4-6.7-3.4c-1.9,0-3.6,0.6-5.1,1.9c-1.5,1.3-2.5,2.9-3,4.9
			c-0.2,0.9-0.4,1.7-0.4,2.3v5.7c0,2.5,0.8,4.6,2.3,6.3c1.5,1.7,3.5,2.6,6,2.6c2.9,0,5.1-1.1,6.7-3.3
			C271,108.7,271.8,105.8,271.8,102.1 M279.6,101.8c0,5.9-1.6,10.5-4.8,13.9c-2.8,3-6.4,4.5-10.6,4.5c-4.5,0-7.8-1.6-9.8-4.9h-0.1
			v18.1h-7.7V96.4c0-3.7-0.1-7.5-0.3-11.3h6.7l0.4,5.5h0.1c2.5-4.1,6.4-6.2,11.6-6.2c4.1,0,7.5,1.6,10.2,4.8
			C278.2,92.4,279.6,96.6,279.6,101.8"/>
		<path class="st1" d="M323.9,106.1c0,4.1-1.4,7.4-4.2,9.9c-3.1,2.8-7.4,4.2-13,4.2c-5.1,0-9.3-1-12.4-3l1.8-6.4c3.4,2,7,3,11.1,3
			c2.9,0,5.1-0.7,6.7-2c1.6-1.3,2.4-3,2.4-5.2c0-1.9-0.7-3.6-2-4.9c-1.3-1.3-3.5-2.6-6.6-3.7c-8.4-3.1-12.5-7.7-12.5-13.7
			c0-3.9,1.5-7.1,4.4-9.7c2.9-2.5,6.8-3.8,11.7-3.8c4.3,0,8,0.8,10.8,2.3l-1.9,6.2c-2.7-1.5-5.7-2.2-9.1-2.2c-2.7,0-4.8,0.7-6.3,2
			c-1.3,1.2-1.9,2.6-1.9,4.3c0,1.9,0.7,3.5,2.2,4.7c1.3,1.1,3.6,2.4,6.9,3.7c4.1,1.7,7.1,3.6,9.1,5.8
			C322.9,100,323.9,102.8,323.9,106.1"/>
		<path class="st1" d="M349.2,90.8h-8.4v16.7c0,4.3,1.5,6.4,4.5,6.4c1.4,0,2.5-0.1,3.4-0.4l0.2,5.8c-1.5,0.6-3.5,0.8-6,0.8
			c-3,0-5.4-0.9-7.1-2.8c-1.7-1.8-2.6-4.9-2.6-9.3V90.8h-5V85h5v-6.3l7.5-2.3V85h8.4V90.8z"/>
		<path class="st1" d="M379.3,102.2c0-3.2-0.7-5.9-2.1-8.2c-1.6-2.7-3.9-4.1-6.9-4.1c-3.1,0-5.4,1.4-7,4.1c-1.4,2.3-2.1,5-2.1,8.3
			c0,3.2,0.7,5.9,2.1,8.2c1.7,2.7,4,4.1,6.9,4.1c2.9,0,5.2-1.4,6.9-4.2C378.6,108.1,379.3,105.4,379.3,102.2 M387.2,102
			c0,5.3-1.5,9.6-4.5,13c-3.2,3.5-7.4,5.2-12.6,5.2c-5.1,0-9.1-1.7-12.1-5c-3-3.4-4.5-7.6-4.5-12.7c0-5.3,1.5-9.7,4.6-13.1
			c3.1-3.4,7.3-5.1,12.5-5.1c5.1,0,9.1,1.7,12.2,5C385.8,92.6,387.2,96.8,387.2,102"/>
		<path class="st1" d="M412.1,91.8c-0.8-0.1-1.6-0.2-2.4-0.2c-2.7,0-4.8,1-6.2,3.1c-1.3,1.8-1.9,4.1-1.9,6.8v18.1h-7.6l0.1-23.6
			c0-4-0.1-7.6-0.3-10.8h6.7l0.3,6.6h0.2c0.8-2.3,2.1-4.1,3.8-5.5c1.7-1.2,3.5-1.8,5.5-1.8c0.7,0,1.3,0,1.9,0.1V91.8z"/>
		<path class="st1" d="M439,98.6c0-2.3-0.4-4.2-1.5-5.9c-1.3-2.1-3.4-3.2-6.1-3.2c-2.5,0-4.5,1-6.1,3.1c-1.3,1.7-2,3.6-2.3,6H439z
			 M446.3,100.6c0,1.4-0.1,2.5-0.3,3.5h-23c0.1,3.4,1.2,6,3.3,7.8c1.9,1.6,4.4,2.4,7.5,2.4c3.4,0,6.5-0.5,9.3-1.6l1.2,5.3
			c-3.3,1.4-7.1,2.1-11.5,2.1c-5.3,0-9.5-1.6-12.6-4.7c-3-3.1-4.6-7.4-4.6-12.7c0-5.2,1.4-9.5,4.3-13c3-3.7,7-5.5,12-5.5
			c5,0,8.7,1.8,11.3,5.5C445.3,92.7,446.3,96.3,446.3,100.6"/>
		<path class="st1" d="M179.9,42.4c0-2.7-0.7-4.8-2.2-6.3c-1.5-1.5-3.6-2.2-6.4-2.2c-1.2,0-2.2,0.1-3,0.2v17.5
			c0.5,0.1,1.3,0.1,2.5,0.1c2.9,0,5.1-0.8,6.7-2.4C179.1,47.8,179.9,45.5,179.9,42.4 M183.9,42.3c0,4.2-1.3,7.4-3.8,9.5
			c-2.3,2-5.7,3-10,3c-2.1,0-4-0.1-5.5-0.3V31.4c2-0.3,4.2-0.5,6.5-0.5c4.1,0,7.2,0.9,9.3,2.7C182.7,35.7,183.9,38.6,183.9,42.3"/>
		<path class="st1" d="M201,46.1c0-1.6-0.3-2.9-1-4c-0.8-1.4-1.9-2-3.4-2c-1.5,0-2.7,0.7-3.4,2c-0.7,1.1-1,2.5-1,4.1
			c0,1.6,0.3,2.9,1,4c0.8,1.3,1.9,2,3.4,2c1.4,0,2.6-0.7,3.4-2.1C200.7,49,201,47.7,201,46.1 M204.9,46c0,2.6-0.7,4.7-2.2,6.4
			c-1.6,1.7-3.6,2.6-6.2,2.6c-2.5,0-4.5-0.8-5.9-2.5c-1.5-1.6-2.2-3.7-2.2-6.2c0-2.6,0.8-4.8,2.3-6.4c1.5-1.7,3.6-2.5,6.1-2.5
			c2.5,0,4.5,0.8,6,2.5C204.2,41.4,204.9,43.5,204.9,46"/>
		<path class="st1" d="M233.1,37.7l-5.3,16.9h-3.4l-2.2-7.3c-0.6-1.8-1-3.7-1.4-5.5h-0.1c-0.3,1.9-0.8,3.7-1.4,5.5l-2.3,7.3h-3.5
			l-5-16.9h3.9l1.9,8c0.5,1.9,0.8,3.7,1.1,5.4h0.1c0.3-1.4,0.7-3.2,1.4-5.4l2.4-8.1h3.1l2.3,7.9c0.6,1.9,1,3.8,1.4,5.6h0.1
			c0.3-1.7,0.6-3.6,1.2-5.6l2.1-7.9H233.1z"/>
		<path class="st1" d="M252.6,54.6h-3.8v-9.7c0-3-1.1-4.5-3.4-4.5c-1.1,0-2,0.4-2.7,1.2c-0.7,0.8-1,1.8-1,2.9v10h-3.8V42.5
			c0-1.5,0-3.1-0.1-4.8h3.3l0.2,2.6h0.1c0.4-0.8,1.1-1.5,1.9-2c1-0.6,2.2-0.9,3.4-0.9c1.6,0,2.9,0.5,3.9,1.5
			c1.3,1.3,1.9,3.1,1.9,5.6V54.6z"/>
	</g>
	<rect x="259.2" y="29.9" width="3.8" height="24.7"/>
	<g>
		<defs>
			<rect id="SVGID_3_" x="10" y="8.6" width="480" height="139.2"/>
		</defs>
		<clipPath id="SVGID_4_">
			<use xlink:href="#SVGID_3_"  style="overflow:visible;"/>
		</clipPath>
		<path class="st2" d="M281.3,46.1c0-1.6-0.3-2.9-1-4c-0.8-1.4-1.9-2-3.4-2c-1.5,0-2.7,0.7-3.4,2c-0.7,1.1-1,2.5-1,4.1
			c0,1.6,0.3,2.9,1,4c0.8,1.3,1.9,2,3.4,2c1.4,0,2.6-0.7,3.4-2.1C280.9,49,281.3,47.7,281.3,46.1 M285.2,46c0,2.6-0.7,4.7-2.2,6.4
			c-1.6,1.7-3.6,2.6-6.2,2.6c-2.5,0-4.5-0.8-5.9-2.5c-1.5-1.6-2.2-3.7-2.2-6.2c0-2.6,0.8-4.8,2.3-6.4c1.5-1.7,3.6-2.5,6.1-2.5
			c2.5,0,4.5,0.8,6,2.5C284.4,41.4,285.2,43.5,285.2,46"/>
		<path class="st2" d="M299.5,48.8v-2.6c-4.2-0.1-6.2,1.1-6.2,3.4c0,0.9,0.2,1.5,0.7,2c0.5,0.4,1.1,0.7,1.8,0.7
			c0.8,0,1.6-0.3,2.3-0.8c0.7-0.5,1.1-1.2,1.3-2C299.4,49.3,299.5,49,299.5,48.8 M303.4,54.6H300l-0.3-1.9h-0.1
			c-1.2,1.6-2.8,2.3-4.9,2.3c-1.6,0-2.9-0.5-3.9-1.5c-0.9-0.9-1.3-2.1-1.3-3.4c0-2.1,0.9-3.6,2.6-4.7c1.7-1.1,4.2-1.6,7.3-1.6v-0.3
			c0-2.2-1.2-3.3-3.5-3.3c-1.7,0-3.1,0.4-4.4,1.3l-0.8-2.5c1.6-1,3.5-1.5,5.8-1.5c4.4,0,6.6,2.3,6.6,7v6.2
			C303.1,52.3,303.2,53.6,303.4,54.6"/>
		<path class="st2" d="M320.8,47.5v-2.8c0-0.5,0-0.9-0.1-1.2c-0.2-0.9-0.7-1.7-1.4-2.3c-0.7-0.6-1.5-0.9-2.5-0.9
			c-1.4,0-2.5,0.6-3.3,1.7c-0.8,1.1-1.2,2.5-1.2,4.3c0,1.7,0.4,3,1.2,4.1c0.8,1.1,1.9,1.7,3.3,1.7c1.2,0,2.2-0.5,3-1.4
			C320.5,49.7,320.8,48.7,320.8,47.5 M324.7,54.6h-3.3l-0.2-2.7h-0.1c-1.1,2.1-2.9,3.1-5.4,3.1c-2,0-3.7-0.8-5.1-2.4
			c-1.3-1.6-2-3.7-2-6.2c0-2.7,0.7-5,2.2-6.7c1.4-1.6,3.2-2.4,5.2-2.4c2.3,0,3.9,0.8,4.8,2.3h0.1v-9.7h3.8V50
			C324.6,51.7,324.7,53.2,324.7,54.6"/>
		<path class="st2" d="M353,46.1c0-1.6-0.3-2.9-1-4c-0.8-1.4-1.9-2-3.4-2c-1.5,0-2.7,0.7-3.4,2c-0.7,1.1-1,2.5-1,4.1
			c0,1.6,0.3,2.9,1,4c0.8,1.3,1.9,2,3.4,2c1.4,0,2.6-0.7,3.4-2.1C352.7,49,353,47.7,353,46.1 M356.9,46c0,2.6-0.7,4.7-2.2,6.4
			c-1.6,1.7-3.6,2.6-6.2,2.6c-2.5,0-4.5-0.8-5.9-2.5c-1.5-1.6-2.2-3.7-2.2-6.2c0-2.6,0.8-4.8,2.3-6.4c1.5-1.7,3.6-2.5,6.2-2.5
			c2.5,0,4.5,0.8,6,2.5C356.2,41.4,356.9,43.5,356.9,46"/>
		<path class="st2" d="M377.2,54.6h-3.8v-9.7c0-3-1.1-4.5-3.4-4.5c-1.1,0-2,0.4-2.7,1.2c-0.7,0.8-1,1.8-1,2.9v10h-3.8V42.5
			c0-1.5,0-3.1-0.1-4.8h3.3l0.2,2.6h0.1c0.4-0.8,1.1-1.5,1.9-2c1-0.6,2.2-0.9,3.4-0.9c1.6,0,2.9,0.5,3.9,1.5
			c1.3,1.3,1.9,3.1,1.9,5.6V54.6z"/>
		<path class="st2" d="M402.5,40.5h-4.1v8.2c0,2.1,0.7,3.1,2.2,3.1c0.7,0,1.2-0.1,1.7-0.2l0.1,2.9c-0.7,0.3-1.7,0.4-2.9,0.4
			c-1.5,0-2.6-0.5-3.5-1.4c-0.8-0.9-1.3-2.4-1.3-4.6v-8.5h-2.5v-2.8h2.5v-3.1l3.7-1.1v4.2h4.1V40.5z"/>
		<path class="st2" d="M422.4,54.6h-3.8V45c0-3-1.1-4.6-3.4-4.6c-1.7,0-2.9,0.9-3.6,2.6c-0.1,0.4-0.2,0.8-0.2,1.4v10.2h-3.8V29.9
			h3.8v10.2h0.1c1.2-1.9,2.9-2.8,5.1-2.8c1.6,0,2.8,0.5,3.9,1.5c1.3,1.3,1.9,3.2,1.9,5.7V54.6z"/>
		<path class="st2" d="M439.3,44.4c0-1.1-0.2-2.1-0.7-2.9c-0.7-1-1.6-1.6-3-1.6c-1.2,0-2.2,0.5-3,1.5c-0.6,0.8-1,1.8-1.1,2.9H439.3z
			 M442.9,45.3c0,0.7,0,1.2-0.1,1.7h-11.3c0,1.7,0.6,2.9,1.6,3.8c1,0.8,2.2,1.2,3.7,1.2c1.7,0,3.2-0.3,4.6-0.8l0.6,2.6
			c-1.6,0.7-3.5,1-5.7,1c-2.6,0-4.7-0.8-6.2-2.3c-1.5-1.5-2.2-3.6-2.2-6.2c0-2.6,0.7-4.7,2.1-6.4c1.5-1.8,3.4-2.7,5.9-2.7
			c2.4,0,4.3,0.9,5.5,2.7C442.4,41.5,442.9,43.2,442.9,45.3"/>
	</g>
</g>
</svg>
