<?xml version="1.0" encoding="utf-8"?>
<!-- Generator: Adobe Illustrator 19.0.0, SVG Export Plug-In . SVG Version: 6.00 Build 0)  -->
<svg version="1.1" id="Layer_1" xmlns="http://www.w3.org/2000/svg" xmlns:xlink="http://www.w3.org/1999/xlink" x="0px" y="0px"
	 viewBox="0 0 500 156" style="enable-background:new 0 0 500 156;" xml:space="preserve">
<style type="text/css">
	.st0{fill:#241F21;}
	.st1{clip-path:url(#SVGID_2_);fill:#241F21;}
	.st2{clip-path:url(#SVGID_2_);fill:none;stroke:#241F21;stroke-width:2;stroke-miterlimit:10;}
	.st3{clip-path:url(#SVGID_2_);}
	.st4{clip-path:url(#SVGID_4_);}
</style>
<g>
	<rect x="354.9" y="74.2" class="st0" width="2.9" height="35.5"/>
	<g>
		<defs>
			<rect id="SVGID_1_" x="10" y="9" width="480" height="139.2"/>
		</defs>
		<clipPath id="SVGID_2_">
			<use xlink:href="#SVGID_1_"  style="overflow:visible;"/>
		</clipPath>
		<path class="st1" d="M380.5,100.4c0,5.2-6.3,7.4-9.4,7.4c-3.1,0-5.8-1.5-5.8-5c0-3.5,4.1-5.7,9.1-5.7h6.1V100.4z M383.6,105.5
			V91.2c0,0-0.2-7.8-10.1-7.8c-9.9,0-10.2,7.3-10.2,7.3l3.1,0c0,0-0.2-5,7-5s7.1,5.8,7.1,5.8V95l-5.8,0c-8.3,0-12.4,3.2-12.4,7.7
			c0,4.5,2.5,7.7,8.6,7.7c6.1,0,9.5-4.3,9.5-4.3c0,1.8,0.9,3.7,0.9,3.7h3.4C384.6,109.7,383.6,107.5,383.6,105.5"/>
		<path class="st1" d="M386.7,84.1h3.1l9.5,21.9l9.3-21.9h3.5c0,0-12.1,28.5-13.3,31.2c-1.1,2.7-3.8,5.2-7.1,5.2c-1.5,0-3-0.9-3-0.9
			l0.8-2.3c0,0,0.7,0.4,2.2,0.4s4-3.4,4-3.4l1.8-4.4L386.7,84.1z"/>
		<path class="st1" d="M339.2,108c-5.3,0-8.6-5.4-8.7-5.6V91.3c0.1-0.1,4-5.4,9.1-5.4c4.7,0,8.6,4.8,8.6,11
			C348.1,103.1,344.5,108,339.2,108 M339.6,83.5c-5.5,0-9.1,4.5-9.2,4.6v-4h0h-2.9v35.5h2.9h0v-14c0.1,0.2,2.9,4.8,9.3,4.8
			c6.4,0,11.4-4.1,11.4-13.6C351.1,87.2,345.1,83.5,339.6,83.5"/>
		<path class="st1" d="M101.6,105.3c9.4-5.1,16.6-9.1,17.2-9.4c1.9-1.1,4-3.8,0-6c-1.3-0.7-8.3-4.5-17.2-9.4L89.3,93L101.6,105.3z"
			/>
		<path class="st1" d="M87.5,94.8L48,134.6c0.9,0.1,2-0.1,3.2-0.8c2.5-1.4,29.9-16.4,48.6-26.6L87.5,94.8z"/>
		<path class="st1" d="M87.5,91.1l12.3-12.4c0,0-45.8-25-48.6-26.5c-1.1-0.6-2.2-0.8-3.2-0.5L87.5,91.1z"/>
		<path class="st1" d="M87.5,93L48,53.5c-1.6,0.4-3,1.8-3,4.6V128c0,2.7,1.1,4.5,3,4.7L87.5,93z"/>
		<path class="st1" d="M190.5,76.7c0,0-4.3-4.3-14.9-4.3c-13,0-20.5,10-20.5,19.4c0,8.2,5.7,18.7,19.9,18.7c7.3,0,15.6-2.7,15.6-2.7
			v-6.4c0-3.1,2.1-4.2,2.1-4.2h-11.3l-4,2.2c2.1-0.5,7.8-0.5,7.8-0.5v7.9c0,0-2.5,1.4-6.3,1.4c-11.1,0-18.2-9.7-18.2-18.5
			c0-10.8,7.7-15.4,14.4-15.4c6.7,0,10.5,5,10.5,5l-1.2,2l2-0.5L190.5,76.7z"/>
		<path class="st1" d="M209.1,108.2c-6.3,0-9.2-9.7-9.2-14.6s3.3-8.4,7.2-8.4c5.5,0,9.2,6.4,9.2,14
			C216.3,101.8,215.4,108.2,209.1,108.2 M208.6,83.6c-7.6,0-13.8,5.5-13.8,13.6c0,5.8,4.7,12.8,13,12.8c8.3,0,14.1-5.5,14.1-13.3
			C221.8,88.9,216.2,83.6,208.6,83.6"/>
		<path class="st1" d="M238.7,108.2c-6.3,0-9.2-9.7-9.2-14.6c0-4.9,3.3-8.4,7.1-8.4c5.5,0,9.2,6.4,9.2,14
			C245.9,101.8,245,108.2,238.7,108.2 M238.1,83.6c-7.6,0-13.8,5.5-13.8,13.6c0,5.8,4.7,12.8,12.9,12.8c8.3,0,14.1-5.5,14.1-13.3
			C251.4,88.9,245.7,83.6,238.1,83.6"/>
		<path class="st1" d="M265.8,124c-1.8,0-9.5-0.7-9.5-6.8c0-6.1,8.9-6.7,9.9-6.7c1,0,1.9,0.1,1.9,0.1c2.7,2.4,5.7,3.6,5.7,7.4
			C273.9,123.5,267.6,124,265.8,124 M266.1,101.8c-3.9,0-7-5.8-7-9.4c0-3.5,1.8-6,4.9-6c3.1,0,6.8,3.6,6.8,10.1
			C270.8,98.8,270,101.8,266.1,101.8 M273.2,108.1c-2.7-1.9-3.2-2.8-3.2-3.6s0-1.5,2-3.3c1.9-1.8,3.7-3.7,3.7-7.2
			c0-5.1-3.5-7.4-3.5-7.4l3.3-0.1l3.3-2h-12.9c-6.6,0-11.6,5.1-11.6,10.6c0,3.9,3.3,8.5,9.7,8.5c0.7,0,1.1-0.1,1.1-0.1
			s-0.4,0.9-0.4,2c0,1.8,1.6,3.5,1.6,3.5s-14.9,0-14.9,9.6c0,5.8,6.5,7.9,11.9,7.9c5.3,0,14.5-2.9,14.5-10.2
			C277.8,112.6,275.9,109.9,273.2,108.1"/>
		<path class="st1" d="M278.1,72.5l3.7-2h8.1c-1.9,1-2.6,1.8-2.6,6.5c0,4.7-0.3,28.5-0.3,28.5c0,1.8,1.6,2.3,3,2.3
			c1.3,0,1.9,0.2,1.9,0.2l-1.7,1.2h-9.8c0,0,1.4-1.3,1.4-2.5l0.5-34.2L278.1,72.5z"/>
		<path class="st1" d="M313.8,90.4c0,0-1.4-7-9.6-7c-8.3,0-12.6,6.5-12.6,12.9c0,6.4,3.8,13.6,13.2,13.6c6.6,0,9.6-4.9,9.6-4.9
			s-3.2,1.9-6.7,1.9c-5.3,0-11.4-5.5-11.4-13.7c0-5.5,3.8-7.7,6.2-7.7c4.8,0,5.7,4.3,5.3,5.1c-0.4,0.8-11.3,5.2-11.3,5.2l4.4-0.2
			L313.8,90.4z"/>
		<path class="st2" d="M489,133.4c0,7.6-6.2,13.8-13.8,13.8H24.8c-7.6,0-13.8-6.2-13.8-13.8V23.8C11,16.2,17.2,10,24.8,10h450.4
			c7.6,0,13.8,6.2,13.8,13.8L489,133.4L489,133.4z"/>
		<path class="st3" d="M172.8,42.8c0-2.7-0.7-4.8-2.2-6.3c-1.5-1.5-3.6-2.2-6.4-2.2c-1.2,0-2.2,0.1-3,0.2v17.5
			c0.5,0.1,1.3,0.1,2.5,0.1c2.9,0,5.1-0.8,6.7-2.4C172.1,48.2,172.8,45.9,172.8,42.8 M176.8,42.7c0,4.2-1.3,7.4-3.8,9.5
			c-2.3,2-5.7,3-10,3c-2.1,0-4-0.1-5.5-0.3V31.9c2-0.3,4.2-0.5,6.5-0.5c4.1,0,7.2,0.9,9.3,2.7C175.6,36.1,176.8,39,176.8,42.7"/>
		<path class="st3" d="M193.9,46.6c0-1.6-0.3-2.9-1-4c-0.8-1.4-1.9-2-3.4-2c-1.5,0-2.7,0.7-3.4,2c-0.7,1.1-1,2.5-1,4.1
			c0,1.6,0.3,2.9,1,4c0.8,1.3,1.9,2,3.4,2c1.4,0,2.6-0.7,3.4-2.1C193.6,49.5,193.9,48.1,193.9,46.6 M197.9,46.4
			c0,2.6-0.7,4.7-2.2,6.4c-1.6,1.7-3.6,2.6-6.2,2.6c-2.5,0-4.5-0.8-5.9-2.5c-1.5-1.6-2.2-3.7-2.2-6.2c0-2.6,0.8-4.8,2.3-6.4
			c1.5-1.7,3.6-2.5,6.1-2.5c2.5,0,4.5,0.8,6,2.5C197.1,41.8,197.9,43.9,197.9,46.4"/>
		<path class="st3" d="M226.1,38.1L220.8,55h-3.4l-2.2-7.3c-0.6-1.8-1-3.7-1.4-5.5h-0.1c-0.3,1.9-0.8,3.7-1.4,5.5L210,55h-3.5
			l-5-16.9h3.9l1.9,8c0.5,1.9,0.8,3.7,1.1,5.4h0.1c0.3-1.4,0.7-3.2,1.4-5.4l2.4-8.1h3.1l2.3,7.9c0.6,1.9,1,3.8,1.4,5.6h0.1
			c0.3-1.7,0.6-3.6,1.2-5.6l2.1-7.9H226.1z"/>
		<path class="st3" d="M245.6,55h-3.8v-9.7c0-3-1.1-4.5-3.4-4.5c-1.1,0-2,0.4-2.7,1.2c-0.7,0.8-1,1.8-1,2.9v10h-3.8V42.9
			c0-1.5,0-3.1-0.1-4.8h3.3l0.2,2.6h0.1c0.4-0.8,1.1-1.5,1.9-2c1-0.6,2.2-0.9,3.4-0.9c1.6,0,2.9,0.5,3.9,1.5
			c1.3,1.3,1.9,3.1,1.9,5.6V55z"/>
	</g>
	<rect x="252.2" y="30.3" width="3.8" height="24.7"/>
	<g>
		<defs>
			<rect id="SVGID_3_" x="10" y="9" width="480" height="139.2"/>
		</defs>
		<clipPath id="SVGID_4_">
			<use xlink:href="#SVGID_3_"  style="overflow:visible;"/>
		</clipPath>
		<path class="st4" d="M274.2,46.6c0-1.6-0.3-2.9-1-4c-0.8-1.4-1.9-2-3.4-2c-1.5,0-2.7,0.7-3.4,2c-0.7,1.1-1,2.5-1,4.1
			c0,1.6,0.3,2.9,1,4c0.8,1.3,1.9,2,3.4,2c1.4,0,2.6-0.7,3.4-2.1C273.8,49.5,274.2,48.1,274.2,46.6 M278.1,46.4
			c0,2.6-0.7,4.7-2.2,6.4c-1.6,1.7-3.6,2.6-6.2,2.6c-2.5,0-4.5-0.8-5.9-2.5c-1.5-1.6-2.2-3.7-2.2-6.2c0-2.6,0.8-4.8,2.3-6.4
			c1.5-1.7,3.6-2.5,6.1-2.5c2.5,0,4.5,0.8,6,2.5C277.4,41.8,278.1,43.9,278.1,46.4"/>
		<path class="st4" d="M292.4,49.2v-2.6c-4.2-0.1-6.2,1.1-6.2,3.4c0,0.9,0.2,1.5,0.7,2c0.5,0.4,1.1,0.7,1.8,0.7
			c0.8,0,1.6-0.3,2.3-0.8c0.7-0.5,1.1-1.2,1.3-2C292.4,49.7,292.4,49.5,292.4,49.2 M296.3,55h-3.4l-0.3-1.9h-0.1
			c-1.2,1.6-2.8,2.3-4.9,2.3c-1.6,0-2.9-0.5-3.9-1.5c-0.9-0.9-1.3-2.1-1.3-3.4c0-2.1,0.9-3.6,2.6-4.7c1.7-1.1,4.2-1.6,7.3-1.6v-0.3
			c0-2.2-1.2-3.3-3.5-3.3c-1.7,0-3.1,0.4-4.4,1.3l-0.8-2.5c1.6-1,3.5-1.5,5.8-1.5c4.4,0,6.6,2.3,6.6,7V51
			C296,52.7,296.1,54,296.3,55"/>
		<path class="st4" d="M313.8,47.9v-2.8c0-0.5,0-0.9-0.1-1.2c-0.2-0.9-0.7-1.7-1.4-2.3c-0.7-0.6-1.5-0.9-2.5-0.9
			c-1.4,0-2.5,0.6-3.3,1.7c-0.8,1.1-1.2,2.5-1.2,4.3c0,1.7,0.4,3,1.2,4.1c0.8,1.1,1.9,1.7,3.3,1.7c1.2,0,2.2-0.5,3-1.4
			C313.4,50.1,313.8,49.1,313.8,47.9 M317.7,55h-3.3l-0.2-2.7h-0.1c-1.1,2.1-2.9,3.1-5.4,3.1c-2,0-3.7-0.8-5.1-2.4
			c-1.3-1.6-2-3.7-2-6.2c0-2.7,0.7-5,2.2-6.7c1.4-1.6,3.2-2.4,5.2-2.4c2.3,0,3.9,0.8,4.8,2.3h0.1v-9.7h3.8v20.1
			C317.5,52.1,317.6,53.6,317.7,55"/>
		<path class="st4" d="M345.9,46.6c0-1.6-0.3-2.9-1-4c-0.8-1.4-1.9-2-3.4-2c-1.5,0-2.7,0.7-3.4,2c-0.7,1.1-1,2.5-1,4.1
			c0,1.6,0.3,2.9,1,4c0.8,1.3,1.9,2,3.4,2c1.4,0,2.6-0.7,3.4-2.1C345.6,49.5,345.9,48.1,345.9,46.6 M349.8,46.4
			c0,2.6-0.7,4.7-2.2,6.4c-1.6,1.7-3.6,2.6-6.2,2.6c-2.5,0-4.5-0.8-5.9-2.5c-1.5-1.6-2.2-3.7-2.2-6.2c0-2.6,0.8-4.8,2.3-6.4
			c1.5-1.7,3.6-2.5,6.2-2.5c2.5,0,4.5,0.8,6,2.5C349.1,41.8,349.8,43.9,349.8,46.4"/>
		<path class="st4" d="M370.1,55h-3.8v-9.7c0-3-1.1-4.5-3.4-4.5c-1.1,0-2,0.4-2.7,1.2c-0.7,0.8-1,1.8-1,2.9v10h-3.8V42.9
			c0-1.5,0-3.1-0.1-4.8h3.3l0.2,2.6h0.1c0.4-0.8,1.1-1.5,1.9-2c1-0.6,2.2-0.9,3.4-0.9c1.6,0,2.9,0.5,3.9,1.5
			c1.3,1.3,1.9,3.1,1.9,5.6V55z"/>
		<path class="st4" d="M395.4,40.9h-4.1v8.2c0,2.1,0.7,3.1,2.2,3.1c0.7,0,1.2-0.1,1.7-0.2l0.1,2.9c-0.7,0.3-1.7,0.4-2.9,0.4
			c-1.5,0-2.6-0.5-3.5-1.4c-0.8-0.9-1.3-2.4-1.3-4.6v-8.5h-2.5v-2.8h2.5V35l3.7-1.1v4.2h4.1V40.9z"/>
		<path class="st4" d="M415.3,55h-3.8v-9.6c0-3-1.1-4.6-3.4-4.6c-1.7,0-2.9,0.9-3.6,2.6c-0.1,0.4-0.2,0.8-0.2,1.4V55h-3.8V30.3h3.8
			v10.2h0.1c1.2-1.9,2.9-2.8,5.1-2.8c1.6,0,2.8,0.5,3.9,1.5c1.3,1.3,1.9,3.2,1.9,5.7V55z"/>
		<path class="st4" d="M432.3,44.8c0-1.1-0.2-2.1-0.7-2.9c-0.7-1-1.6-1.6-3-1.6c-1.2,0-2.2,0.5-3,1.5c-0.6,0.8-1,1.8-1.1,2.9H432.3z
			 M435.9,45.8c0,0.7,0,1.2-0.1,1.7h-11.3c0,1.7,0.6,2.9,1.6,3.8c1,0.8,2.2,1.2,3.7,1.2c1.7,0,3.2-0.3,4.6-0.8l0.6,2.6
			c-1.6,0.7-3.5,1-5.7,1c-2.6,0-4.7-0.8-6.2-2.3c-1.5-1.5-2.2-3.6-2.2-6.2c0-2.6,0.7-4.7,2.1-6.4c1.5-1.8,3.4-2.7,5.9-2.7
			c2.4,0,4.3,0.9,5.5,2.7C435.4,41.9,435.9,43.7,435.9,45.8"/>
	</g>
</g>
</svg>
