<svg id="Layer_1" data-name="Layer 1" xmlns="http://www.w3.org/2000/svg" viewBox="0 0 451.48 88.79"><defs><style>.cls-1{fill:#424242;}.cls-2,.cls-3{fill:#940003;}.cls-3{fill-rule:evenodd;}</style></defs><title>larissa_developers_logo</title><path class="cls-1" d="M344,28.38a4.42,4.42,0,0,1-.46,2,3.63,3.63,0,0,1-1.4,1.51,4.73,4.73,0,0,1-2.42.6,4.63,4.63,0,0,1-2.3-.56A3.63,3.63,0,0,1,336,30.45a4.66,4.66,0,0,1,0-4.14,3.48,3.48,0,0,1,1.43-1.44,4.83,4.83,0,0,1,2.37-.55,4.55,4.55,0,0,1,2.26.56,3.78,3.78,0,0,1,1.43,1.46A4.48,4.48,0,0,1,344,28.38ZM350.5,36V20.88a11.16,11.16,0,0,0-.95-4.9,6.81,6.81,0,0,0-3.13-3.19,12.55,12.55,0,0,0-5.69-1.13,19.05,19.05,0,0,0-4.18.46,18.41,18.41,0,0,0-4,1.32.81.81,0,0,0-.45,1.11l1,2.83a.83.83,0,0,0,.46.52,1,1,0,0,0,.76,0,18,18,0,0,1,1.86-.59c.71-.19,1.41-.33,2.11-.45a11.45,11.45,0,0,1,1.86-.18,5.22,5.22,0,0,1,3.27.83,3,3,0,0,1,1,2.5v.67q0,.4-.24.45a.72.72,0,0,1-.54-.12,8.75,8.75,0,0,0-2.05-.88,9,9,0,0,0-2.22-.28,11,11,0,0,0-5.1,1.1,7.73,7.73,0,0,0-3.26,3,9.06,9.06,0,0,0-1.14,4.55A9.25,9.25,0,0,0,331,33.12a7.41,7.41,0,0,0,3.15,2.94,10.89,10.89,0,0,0,4.89,1,8.56,8.56,0,0,0,2.11-.24,7.76,7.76,0,0,0,1.67-.61,6.57,6.57,0,0,0,1.22-.76c.25-.19.45-.26.57-.22s.21.2.21.45v.44a.59.59,0,0,0,.16.45.61.61,0,0,0,.45.16h4.33a.7.7,0,0,0,.57-.18A.83.83,0,0,0,350.5,36ZM326,29.6a6.29,6.29,0,0,0-.64-2.84,6.42,6.42,0,0,0-1.73-2.05,11.81,11.81,0,0,0-2.41-1.46,25.39,25.39,0,0,0-2.76-1.06c-.94-.3-1.85-.6-2.73-.87a5.77,5.77,0,0,1-2-1,1.71,1.71,0,0,1-.64-1.32,1.89,1.89,0,0,1,.39-1.17,2.28,2.28,0,0,1,1-.74,3.92,3.92,0,0,1,1.46-.25,8,8,0,0,1,2.22.34,18.25,18.25,0,0,1,2.39.93q.54.27,1,.54a1.63,1.63,0,0,0,.73.3.72.72,0,0,0,.32-.08,1,1,0,0,0,.29-.2l1.78-2.61a1.69,1.69,0,0,0,.27-.69.7.7,0,0,0-.22-.64A9.53,9.53,0,0,0,322.15,13a13.48,13.48,0,0,0-3-1,15.07,15.07,0,0,0-2.93-.29,12.12,12.12,0,0,0-3.39.47A9,9,0,0,0,310,13.62,6.67,6.67,0,0,0,308,16a7.24,7.24,0,0,0-.73,3.25,6.08,6.08,0,0,0,.8,3.13,6.79,6.79,0,0,0,2.16,2.21,13.5,13.5,0,0,0,3.2,1.49q1.07.34,2.1.63c.69.21,1.31.4,1.85.6a5.86,5.86,0,0,1,1.93,1,1.86,1.86,0,0,1,.68,1.5A1.82,1.82,0,0,1,319.5,31a3.24,3.24,0,0,1-1.24.8,4.73,4.73,0,0,1-1.52.27,6.3,6.3,0,0,1-2.94-.68,7.58,7.58,0,0,1-2.45-2.1.93.93,0,0,0-.55-.42,1.13,1.13,0,0,0-.72.2L307,30.82a.68.68,0,0,0-.38.55,1.19,1.19,0,0,0,.15.67,8,8,0,0,0,2.54,3,10.57,10.57,0,0,0,3.46,1.58,16,16,0,0,0,3.83.45,13.7,13.7,0,0,0,3.71-.49,9.33,9.33,0,0,0,3-1.44,6.65,6.65,0,0,0,2-2.34A6.86,6.86,0,0,0,326,29.6Zm-22.93,0a6.17,6.17,0,0,0-.65-2.84,6.39,6.39,0,0,0-1.72-2.05,11.88,11.88,0,0,0-2.42-1.46,25.22,25.22,0,0,0-2.75-1.06c-1-.3-1.85-.6-2.73-.87a5.68,5.68,0,0,1-2-1A1.71,1.71,0,0,1,290.2,19a1.89,1.89,0,0,1,.39-1.17,2.25,2.25,0,0,1,1-.74,4,4,0,0,1,1.46-.25,8,8,0,0,1,2.23.34,18.15,18.15,0,0,1,2.38.93c.36.18.7.36,1,.54a1.73,1.73,0,0,0,.73.3.73.73,0,0,0,.33-.08,1.15,1.15,0,0,0,.29-.2l1.77-2.61a1.71,1.71,0,0,0,.28-.69.73.73,0,0,0-.22-.64A9.83,9.83,0,0,0,299.22,13a13.48,13.48,0,0,0-3-1,15.22,15.22,0,0,0-2.93-.29,12,12,0,0,0-3.39.47,8.88,8.88,0,0,0-2.85,1.43,6.67,6.67,0,0,0-2,2.34,7.24,7.24,0,0,0-.73,3.25,6.08,6.08,0,0,0,.79,3.13,6.82,6.82,0,0,0,2.17,2.21,13.32,13.32,0,0,0,3.2,1.49c.7.23,1.41.44,2.1.63s1.31.4,1.84.6a6,6,0,0,1,1.94,1,1.88,1.88,0,0,1,.67,1.5,1.78,1.78,0,0,1-.52,1.26,3.17,3.17,0,0,1-1.24.8,4.67,4.67,0,0,1-1.51.27,6.31,6.31,0,0,1-2.95-.68,7.55,7.55,0,0,1-2.44-2.1.94.94,0,0,0-.56-.42,1.16,1.16,0,0,0-.72.2L284,30.82a.68.68,0,0,0-.38.55,1.2,1.2,0,0,0,.16.67,8,8,0,0,0,2.54,3,10.47,10.47,0,0,0,3.46,1.58,15.92,15.92,0,0,0,3.83.45,13.68,13.68,0,0,0,3.7-.49,9.28,9.28,0,0,0,3-1.44,6.65,6.65,0,0,0,2-2.34A6.86,6.86,0,0,0,303.08,29.6Zm-30.43,6.33a.77.77,0,0,0,.24.62.92.92,0,0,0,.65.21h4.33a.87.87,0,0,0,.62-.19,1,1,0,0,0,.21-.7V13a.89.89,0,0,0-.26-.68.88.88,0,0,0-.63-.21h-4.33a.8.8,0,0,0-.62.23,1,1,0,0,0-.21.66Zm6.66-30.49a3.31,3.31,0,0,0-.5-1.76,3.57,3.57,0,0,0-1.31-1.22,3.74,3.74,0,0,0-3.61,0,3.48,3.48,0,0,0-1.26,1.24,3.4,3.4,0,0,0-.48,1.73,3.53,3.53,0,0,0,.49,1.77,3.57,3.57,0,0,0,1.3,1.26,3.79,3.79,0,0,0,1.82.47,3.44,3.44,0,0,0,1.79-.5,3.62,3.62,0,0,0,1.27-1.28A3.34,3.34,0,0,0,279.31,5.44Zm-9.55,7.67a1.06,1.06,0,0,0,0-.72c-.07-.19-.31-.34-.68-.45a3.6,3.6,0,0,0-1-.22,9.22,9.22,0,0,0-1-.06,6.68,6.68,0,0,0-2.48.48,8,8,0,0,0-2,1.19,8.57,8.57,0,0,0-1.48,1.55c-.15.19-.29.26-.41.21s-.19-.2-.2-.43V12.94a.8.8,0,0,0-.26-.63.93.93,0,0,0-.63-.2h-3.78a.86.86,0,0,0-.64.23.9.9,0,0,0-.25.66V35.93a.78.78,0,0,0,.25.62.9.9,0,0,0,.64.21h4.28a1,1,0,0,0,.67-.21.86.86,0,0,0,.27-.68V23.49a9.06,9.06,0,0,1,.45-3.07A4,4,0,0,1,263,18.33a5,5,0,0,1,2.92-.78,6.92,6.92,0,0,1,.85.07,9.05,9.05,0,0,1,1,.21,1.15,1.15,0,0,0,.7-.09,1.23,1.23,0,0,0,.36-.75ZM242.39,28.38a4.42,4.42,0,0,1-.46,2,3.63,3.63,0,0,1-1.4,1.51,5.11,5.11,0,0,1-4.73,0,3.67,3.67,0,0,1-1.42-1.48,4.66,4.66,0,0,1,0-4.14,3.48,3.48,0,0,1,1.43-1.44,4.82,4.82,0,0,1,2.36-.55,4.57,4.57,0,0,1,2.27.56,3.78,3.78,0,0,1,1.43,1.46A4.48,4.48,0,0,1,242.39,28.38Zm6.49,7.6V20.88a11.16,11.16,0,0,0-.95-4.9,6.81,6.81,0,0,0-3.13-3.19,12.55,12.55,0,0,0-5.69-1.13,19.05,19.05,0,0,0-4.18.46,18.23,18.23,0,0,0-4,1.32.81.81,0,0,0-.45,1.11l1,2.83a.83.83,0,0,0,.46.52,1,1,0,0,0,.76,0,18,18,0,0,1,1.86-.59c.71-.19,1.41-.33,2.11-.45a11.45,11.45,0,0,1,1.86-.18,5.22,5.22,0,0,1,3.27.83,3,3,0,0,1,1,2.5v.67q0,.4-.24.45a.72.72,0,0,1-.54-.12,8.75,8.75,0,0,0-2.05-.88,9,9,0,0,0-2.22-.28,11,11,0,0,0-5.1,1.1,7.73,7.73,0,0,0-3.26,3,9.06,9.06,0,0,0-1.14,4.55,9.25,9.25,0,0,0,1.12,4.63,7.41,7.41,0,0,0,3.15,2.94,10.89,10.89,0,0,0,4.89,1,8.56,8.56,0,0,0,2.11-.24,7.76,7.76,0,0,0,1.67-.61,6.57,6.57,0,0,0,1.22-.76c.25-.19.44-.26.57-.22s.21.2.21.45v.44a.56.56,0,0,0,.61.61h4.33a.7.7,0,0,0,.57-.18A.83.83,0,0,0,248.88,36Zm-37.09-4.83c-.34,0-.56-.06-.63-.2a1.14,1.14,0,0,1-.09-.63v-27a.69.69,0,0,0-.27-.62,1.32,1.32,0,0,0-.73-.16h-4.33a1.2,1.2,0,0,0-.71.18.8.8,0,0,0-.24.65V35.82a.94.94,0,0,0,.25.7,1.06,1.06,0,0,0,.75.24h18.66c.55,0,.83-.33.83-1V32.1a.92.92,0,0,0-.26-.72.89.89,0,0,0-.63-.23Z" transform="translate(0 -2)"/><path class="cls-2" d="M451.48,72.4a6.57,6.57,0,0,0-.69-3A6.9,6.9,0,0,0,449,67.18a12.74,12.74,0,0,0-2.58-1.56,28.81,28.81,0,0,0-2.94-1.13c-1-.32-2-.64-2.92-.92a6.15,6.15,0,0,1-2.1-1.09,1.8,1.8,0,0,1-.68-1.4,2,2,0,0,1,.41-1.26,2.61,2.61,0,0,1,1.11-.79,4.25,4.25,0,0,1,1.56-.27,8.34,8.34,0,0,1,2.37.37,18.07,18.07,0,0,1,2.55,1c.39.19.74.38,1.06.57a1.78,1.78,0,0,0,.78.32.77.77,0,0,0,.34-.08,1.16,1.16,0,0,0,.31-.22l1.9-2.79a1.77,1.77,0,0,0,.3-.73.82.82,0,0,0-.24-.69,10.87,10.87,0,0,0-2.82-1.86,14.19,14.19,0,0,0-3.18-1,15.84,15.84,0,0,0-3.13-.32,12.92,12.92,0,0,0-3.62.5,9.35,9.35,0,0,0-3,1.53,7.18,7.18,0,0,0-2.11,2.5,7.75,7.75,0,0,0-.78,3.47,6.52,6.52,0,0,0,.85,3.34A7.22,7.22,0,0,0,434.66,67a15,15,0,0,0,3.42,1.6c.75.23,1.5.46,2.24.67s1.4.42,2,.63A6.52,6.52,0,0,1,444.36,71a2,2,0,0,1,.72,1.6,1.91,1.91,0,0,1-.56,1.35,3.18,3.18,0,0,1-1.32.85,4.82,4.82,0,0,1-1.62.29,6.84,6.84,0,0,1-3.14-.72,8.1,8.1,0,0,1-2.61-2.24,1.06,1.06,0,0,0-.6-.46,1.28,1.28,0,0,0-.77.22l-3.32,1.84a.72.72,0,0,0-.4.58,1.29,1.29,0,0,0,.17.72,8.59,8.59,0,0,0,2.7,3.17,10.89,10.89,0,0,0,3.7,1.68,16.59,16.59,0,0,0,4.09.49,14.31,14.31,0,0,0,4-.53,9.61,9.61,0,0,0,3.2-1.54,7,7,0,0,0,2.14-2.49,7.24,7.24,0,0,0,.78-3.39M429.19,54.79a1.05,1.05,0,0,0,0-.76c-.08-.21-.33-.37-.73-.48a4,4,0,0,0-1.05-.24,10.67,10.67,0,0,0-1.09-.06,7.19,7.19,0,0,0-2.65.51A8.31,8.31,0,0,0,421.52,55a8.75,8.75,0,0,0-1.58,1.66c-.16.2-.31.28-.44.22s-.21-.21-.22-.46V54.61a.86.86,0,0,0-.27-.67,1,1,0,0,0-.67-.22h-4a.88.88,0,0,0-.95,1V79.16a.81.81,0,0,0,.26.66,1,1,0,0,0,.69.23h4.57a1.09,1.09,0,0,0,.72-.23.89.89,0,0,0,.29-.72V65.88a10,10,0,0,1,.47-3.28A4.31,4.31,0,0,1,422,60.37a5.36,5.36,0,0,1,3.13-.83,6.1,6.1,0,0,1,.9.07,10.35,10.35,0,0,1,1.05.22,1.19,1.19,0,0,0,.74-.09,1.23,1.23,0,0,0,.39-.8Zm-32.56,4.09a4.77,4.77,0,0,1,2.14.48,4.2,4.2,0,0,1,1.58,1.32,4.47,4.47,0,0,1,.79,2.06,1.3,1.3,0,0,1-.15.79.75.75,0,0,1-.68.33h-7.18a1.17,1.17,0,0,1-.79-.21.77.77,0,0,1-.21-.62,4.75,4.75,0,0,1,.69-2.07,4.34,4.34,0,0,1,1.54-1.5A4.47,4.47,0,0,1,396.63,58.88Zm11,7.53V63.63a11.16,11.16,0,0,0-.83-4.32A9.25,9.25,0,0,0,404.52,56,10.45,10.45,0,0,0,401,54a13.42,13.42,0,0,0-4.44-.72,12.37,12.37,0,0,0-5.77,1.32,9.64,9.64,0,0,0-3.89,3.62,10.59,10.59,0,0,0-1.43,5.44v6.7a10,10,0,0,0,1.41,5.29,9.29,9.29,0,0,0,3.89,3.52,13.3,13.3,0,0,0,5.91,1.27,13.57,13.57,0,0,0,3.95-.56,10.21,10.21,0,0,0,3.46-1.72,9.65,9.65,0,0,0,2.61-3,.86.86,0,0,0,0-.89,2.38,2.38,0,0,0-.78-.71L403,71.69c-.35-.23-.63-.3-.82-.21a1.64,1.64,0,0,0-.61.51,9.92,9.92,0,0,1-1.28,1.32,6.47,6.47,0,0,1-1.64,1,5.45,5.45,0,0,1-2.12.41,4.45,4.45,0,0,1-2.39-.65,4.38,4.38,0,0,1-1.6-1.68,5,5,0,0,1-.57-2.35V69.2a1,1,0,0,1,.27-.7,1.28,1.28,0,0,1,.91-.31H406a1.62,1.62,0,0,0,1.19-.49A1.85,1.85,0,0,0,407.66,66.41ZM373.8,70.33a5.75,5.75,0,0,1-.47,2.36,3.71,3.71,0,0,1-1.5,1.64,5.22,5.22,0,0,1-2.65.62,4.49,4.49,0,0,1-2.38-.63,4.25,4.25,0,0,1-1.57-1.66,4.86,4.86,0,0,1-.56-2.33v-6.7a4.48,4.48,0,0,1,.56-2.28,4.42,4.42,0,0,1,1.62-1.62,4.93,4.93,0,0,1,2.39-.61,5.05,5.05,0,0,1,2.5.6,3.93,3.93,0,0,1,1.54,1.62,5.24,5.24,0,0,1,.52,2.35Zm6.47-6.7a13.39,13.39,0,0,0-.58-4.05A9.12,9.12,0,0,0,378,56.34,7.75,7.75,0,0,0,375,54.21a10.45,10.45,0,0,0-4.17-.78,10.63,10.63,0,0,0-2.36.27,10.17,10.17,0,0,0-3.39,1.63.68.68,0,0,1-.38.14.3.3,0,0,1-.22-.13.57.57,0,0,1-.06-.25v-.48a.81.81,0,0,0-.24-.59.88.88,0,0,0-.65-.24H359.1a1,1,0,0,0-.7.25.88.88,0,0,0-.25.64V89.89a.87.87,0,0,0,.25.67,1.15,1.15,0,0,0,.76.23h4.56a.88.88,0,0,0,.95-1V79.4c0-.25.08-.4.24-.44s.41,0,.77.26a5.28,5.28,0,0,0,1.13.6,8.39,8.39,0,0,0,1.62.5,10.29,10.29,0,0,0,2,.21,11.26,11.26,0,0,0,4.22-.77,8.78,8.78,0,0,0,3.09-2.1,9.12,9.12,0,0,0,1.89-3.08,10.92,10.92,0,0,0,.65-3.78ZM345.7,70.21a4.52,4.52,0,0,1-1.25,3.33,4.66,4.66,0,0,1-3.38,1.23,5.12,5.12,0,0,1-2.53-.59,3.67,3.67,0,0,1-1.52-1.6,5.11,5.11,0,0,1-.52-2.37v-6.7a5,5,0,0,1,.54-2.37,3.76,3.76,0,0,1,1.56-1.6,5,5,0,0,1,2.47-.6,4.65,4.65,0,0,1,3.43,1.24,4.6,4.6,0,0,1,1.2,3.33Zm6.46.06V63.33a10.53,10.53,0,0,0-1.38-5.48,8.69,8.69,0,0,0-3.86-3.42,13.6,13.6,0,0,0-5.85-1.18,12.69,12.69,0,0,0-5.78,1.28,9.47,9.47,0,0,0-3.86,3.52A10.23,10.23,0,0,0,330,63.33v7.12a10.19,10.19,0,0,0,1.37,5.32,8.88,8.88,0,0,0,3.84,3.42,14.89,14.89,0,0,0,11.69,0,8.69,8.69,0,0,0,3.84-3.42A10.74,10.74,0,0,0,352.16,70.27ZM322.45,43.05a.73.73,0,0,0-.24-.58.87.87,0,0,0-.59-.19h-4.86a.74.74,0,0,0-.57.22.86.86,0,0,0-.2.61V72.4a12.59,12.59,0,0,0,.68,4.59A4.93,4.93,0,0,0,319,79.66a8.91,8.91,0,0,0,4.27.87h.5l.75,0a6.48,6.48,0,0,0,.77-.08,1.39,1.39,0,0,0,.78-.25,1,1,0,0,0,.28-.82V75.66a2,2,0,0,0-.05-.46.89.89,0,0,0-.24-.42.83.83,0,0,0-.54-.18h-.65a3,3,0,0,1-1.46-.27,1.46,1.46,0,0,1-.71-.93,5.66,5.66,0,0,1-.2-1.77ZM299,58.88a4.7,4.7,0,0,1,2.13.48,4.05,4.05,0,0,1,1.58,1.32,4.37,4.37,0,0,1,.8,2.06,1.37,1.37,0,0,1-.15.79.75.75,0,0,1-.69.33h-7.17a1.15,1.15,0,0,1-.79-.21.77.77,0,0,1-.22-.62,5,5,0,0,1,.69-2.07,4.37,4.37,0,0,1,1.55-1.5A4.47,4.47,0,0,1,299,58.88Zm11,7.53V63.63a11.16,11.16,0,0,0-.83-4.32A9.4,9.4,0,0,0,306.85,56a10.31,10.31,0,0,0-3.5-2.07,13.47,13.47,0,0,0-4.44-.72,12.37,12.37,0,0,0-5.77,1.32,9.67,9.67,0,0,0-3.9,3.62,10.59,10.59,0,0,0-1.42,5.44v6.7a10,10,0,0,0,1.4,5.29,9.32,9.32,0,0,0,3.9,3.52A13.27,13.27,0,0,0,299,80.41a13.62,13.62,0,0,0,4-.56,10.3,10.3,0,0,0,3.46-1.72,9.65,9.65,0,0,0,2.61-3,.86.86,0,0,0,0-.89,2.49,2.49,0,0,0-.78-.71l-2.91-1.84c-.34-.23-.62-.3-.82-.21a1.62,1.62,0,0,0-.6.51,10,10,0,0,1-1.29,1.32,6.14,6.14,0,0,1-1.64,1,5.4,5.4,0,0,1-2.11.41,4.45,4.45,0,0,1-2.39-.65,4.31,4.31,0,0,1-1.6-1.68,5,5,0,0,1-.58-2.35V69.2a.94.94,0,0,1,.28-.7,1.26,1.26,0,0,1,.91-.31h12.81a1.6,1.6,0,0,0,1.18-.49A1.81,1.81,0,0,0,310,66.41ZM284.44,55a1.06,1.06,0,0,0,.05-.53.87.87,0,0,0-.28-.5,1,1,0,0,0-.66-.22H279.1a1.56,1.56,0,0,0-.89.25,1.8,1.8,0,0,0-.49.55,2.44,2.44,0,0,0-.22.57l-3,10.08-1.84,7q-.1.21-.27.21c-.11,0-.2-.1-.26-.27l-2-7.18-3-10.08a1.3,1.3,0,0,0-.51-.79,1.92,1.92,0,0,0-1.15-.34h-4.33a.87.87,0,0,0-.85.41,1.05,1.05,0,0,0,0,.9l8.43,24a1.34,1.34,0,0,0,.52.84,1.77,1.77,0,0,0,1,.17h4.15a2.14,2.14,0,0,0,.94-.17.9.9,0,0,0,.48-.6Zm-38.25,3.91a4.74,4.74,0,0,1,2.14.48,4.2,4.2,0,0,1,1.58,1.32,4.47,4.47,0,0,1,.79,2.06,1.3,1.3,0,0,1-.15.79.74.74,0,0,1-.68.33h-7.18a1.17,1.17,0,0,1-.79-.21.81.81,0,0,1-.21-.62,4.89,4.89,0,0,1,.69-2.07,4.34,4.34,0,0,1,1.54-1.5A4.47,4.47,0,0,1,246.19,58.88Zm11,7.53V63.63a11,11,0,0,0-.83-4.32A9.25,9.25,0,0,0,254.08,56,10.36,10.36,0,0,0,250.57,54a13.42,13.42,0,0,0-4.44-.72,12.37,12.37,0,0,0-5.77,1.32,9.64,9.64,0,0,0-3.89,3.62,10.59,10.59,0,0,0-1.42,5.44v6.7a10,10,0,0,0,1.4,5.29,9.29,9.29,0,0,0,3.89,3.52,13.3,13.3,0,0,0,5.91,1.27,13.69,13.69,0,0,0,4-.56,10.25,10.25,0,0,0,3.45-1.72,9.65,9.65,0,0,0,2.61-3,.86.86,0,0,0,0-.89,2.28,2.28,0,0,0-.78-.71l-2.9-1.84c-.35-.23-.63-.3-.82-.21a1.64,1.64,0,0,0-.61.51,9.92,9.92,0,0,1-1.28,1.32,6.3,6.3,0,0,1-1.64,1,5.45,5.45,0,0,1-2.12.41,4.45,4.45,0,0,1-2.39-.65,4.38,4.38,0,0,1-1.6-1.68,5.13,5.13,0,0,1-.57-2.35V69.2a1,1,0,0,1,.27-.7,1.28,1.28,0,0,1,.91-.31h12.81a1.62,1.62,0,0,0,1.19-.49A1.85,1.85,0,0,0,257.22,66.41Zm-44.65,7.65a1,1,0,0,1-.74-.2,1,1,0,0,1-.21-.75V50.34a1.12,1.12,0,0,1,.19-.73,1,1,0,0,1,.82-.27h4.57a6.56,6.56,0,0,1,2.77.51,3.84,3.84,0,0,1,1.8,1.65,5.88,5.88,0,0,1,.64,2.94V69a5.4,5.4,0,0,1-1.17,3.73,4.93,4.93,0,0,1-3.81,1.37Zm5.58,6a12.56,12.56,0,0,0,6-1.34,8.65,8.65,0,0,0,3.68-3.82A13.18,13.18,0,0,0,229.12,69V54.38a12.77,12.77,0,0,0-1.23-5.83,8.48,8.48,0,0,0-3.71-3.76A13.37,13.37,0,0,0,218,43.47H206a1.23,1.23,0,0,0-.83.25,1,1,0,0,0-.3.75V79a1,1,0,0,0,.3.76,1.28,1.28,0,0,0,.83.25Z" transform="translate(0 -2)"/><path class="cls-3" d="M50.69,55.07,30.12,40.67l20.57-14.4L45.55,2,0,34.35V47L45.55,79.32Zm83.61,0,20.57-14.4L134.3,26.27,139.44,2,185,34.35V47L139.44,79.32ZM62,79.17,94,3.06H123L90.51,79.17Z" transform="translate(0 -2)"/></svg>